<svg id="Capa_1" enable-background="new 0 0 512 512" height="512" viewBox="0 0 512 512" width="512" xmlns="http://www.w3.org/2000/svg"><g><g><path clip-rule="evenodd" d="m429.481 206.511h-406.531c-8.476 0-15.421 6.896-15.449 15.38v.085 113.509.085c.028 8.485 6.973 15.38 15.449 15.38h440.974c8.504 0 15.449-6.952 15.449-15.466v-113.507c0-.681-.028-1.362-.113-2.043l-15.591 15.466c-1.276.993-1.899 1.561-2.523 1.561-.652 0-1.276-.568-2.551-1.561z" fill="#c3ddff" fill-rule="evenodd"/></g><g><path clip-rule="evenodd" d="m393.48 350.951h70.444c8.504 0 15.449-6.952 15.449-15.466v-113.508c0-.681-.028-1.362-.113-2.043l-15.591 15.466c-1.276.993-1.899 1.561-2.523 1.561-.652 0-1.276-.568-2.551-1.561l-29.113-28.888h-87.169c6.18 12.543 11.112 26.221 14.627 40.75 2.353 9.79 4.025 19.949 4.989 30.392.624 6.697.935 13.536.935 20.46 0 18.445-2.268 36.209-6.435 52.838h6.435v-10.925z" fill="#9dc6fb" fill-rule="evenodd"/></g><g><path clip-rule="evenodd" d="m497.09 202.226c9.893-10.244 9.893-27.015 0-37.288-8.986-9.308-23.5-6.981-33.082 1.674-1.758 1.617-2.41 2.412-2.863 2.384-.482.028-1.106-.766-2.891-2.384-9.581-8.655-24.095-10.982-33.082-1.674-9.893 10.273-9.893 27.043 0 37.288l4.025 3.973.284.312 29.113 28.888c1.276.993 1.899 1.561 2.551 1.561.624 0 1.247-.568 2.523-1.561l15.591-15.466 13.834-13.735z" fill="#ffcccf" fill-rule="evenodd"/></g><g><path clip-rule="evenodd" d="m416.101 58.949c-11.878-12.344-31.097-9.251-43.797 2.213-2.353 2.1-3.175 3.178-3.827 3.15-.624.028-1.446-1.05-3.799-3.15-12.7-11.464-31.919-14.558-43.797-2.213-13.097 13.564-13.097 35.784 0 49.376l5.301 5.25 38.949 38.65c1.673 1.334 2.523 2.072 3.345 2.1.85-.028 1.701-.766 3.373-2.1l38.949-38.65 5.301-5.25c13.099-13.592 13.099-35.811.002-49.376z" fill="#ff8086" fill-rule="evenodd"/></g><g><path clip-rule="evenodd" d="m444.052 368.999-50.572-18.048-30.616-10.925v10.925l-.056 75.342 22.281-15.693 35.491 50.426 36.682-25.851-35.491-50.455z" fill="#eceaed" fill-rule="evenodd"/></g><g><path clip-rule="evenodd" d="m497.09 164.938c-6.208-6.442-15.081-7.293-23.103-4.37 9.043 10.329 8.759 26.419-.85 36.38l-3.997 3.973-22.65 22.475 12.104 12.004c1.276.993 1.899 1.561 2.551 1.561.624 0 1.247-.568 2.523-1.561l15.591-15.466 13.834-13.735 3.997-3.973c9.893-10.244 9.893-27.015 0-37.288z" fill="#e7b1b9" fill-rule="evenodd"/></g><g><path clip-rule="evenodd" d="m389.313 51.997c7.966 13.422 6.322 31.357-4.876 42.991l-5.301 5.25-33.195 32.946 19.191 19.041c1.673 1.334 2.523 2.072 3.345 2.1.85-.028 1.701-.766 3.373-2.1l38.949-38.65 5.301-5.25c13.097-13.593 13.097-35.812 0-49.376-7.256-7.519-17.234-9.307-26.787-6.952z" fill="#e5646e" fill-rule="evenodd"/></g><g><path d="m206.195 240.214c-3.134.977-5.269 3.877-5.269 7.16v60.301c0 4.143 3.357 7.5 7.5 7.5s7.5-3.357 7.5-7.5v-36.229l27.066 39.217c2.207 3.194 5.884 4.554 9.373 3.47 3.557-1.11 5.856-4.446 5.856-8.573l-.567-58.372c-.04-4.117-3.391-7.427-7.498-7.427-.025 0-.05 0-.075 0-4.142.041-7.467 3.431-7.427 7.573l.359 36.952-28.413-41.171c-1.864-2.701-5.268-3.876-8.405-2.901z"/><path d="m49.482 241.548c-1.992 0-3.903.793-5.31 2.203-1.407 1.411-2.195 3.323-2.19 5.316 0 .001.057 22.546.057 29.21 0 8.154.086 29.429.086 29.429.008 1.99.807 3.896 2.22 5.296 1.405 1.393 3.303 2.174 5.28 2.174h.035c.5-.002 12.321-.058 17.051-.143 17.688-.319 30.525-15.741 30.525-36.671 0-22.02-12.515-36.814-31.142-36.814zm32.754 36.815c0 10.646-4.884 21.476-15.794 21.672-2.152.039-5.918.072-9.345.096-.025-6.924-.058-16.858-.058-21.854 0-4.165-.022-14.529-.039-21.728h9.094c15.364 0 16.142 18.171 16.142 21.814z"/><path d="m286.362 310.345 3.811-10.01h26.049l3.764 9.987c1.132 3.005 3.986 4.857 7.019 4.857.879 0 1.773-.155 2.645-.484 3.876-1.461 5.833-5.787 4.372-9.663l-22.451-59.564c-.018-.047-.036-.094-.055-.141-1.353-3.381-4.581-5.566-8.225-5.566s-6.872 2.185-8.225 5.566c-.016.039-.031.078-.046.117l-22.677 59.564c-1.475 3.871.469 8.204 4.34 9.678 3.873 1.475 8.206-.47 9.679-4.341zm16.901-44.392 7.306 19.381h-14.684z"/><path d="m429.849 255.3c4.143 0 7.5-3.357 7.5-7.5s-3.357-7.5-7.5-7.5h-25.201c-4.143 0-7.5 3.357-7.5 7.5v59.876c0 4.143 3.358 7.5 7.5 7.5h25.201c4.143 0 7.5-3.357 7.5-7.5s-3.357-7.5-7.5-7.5h-17.701v-14.938h15.859c4.143 0 7.5-3.357 7.5-7.5s-3.357-7.5-7.5-7.5h-15.859v-14.938z"/><path d="m361.929 315.176c4.143 0 7.5-3.357 7.5-7.5v-52.915h9.225c4.143 0 7.5-3.357 7.5-7.5s-3.357-7.5-7.5-7.5h-33.308c-4.143 0-7.5 3.357-7.5 7.5s3.358 7.5 7.5 7.5h9.083v52.915c0 4.142 3.357 7.5 7.5 7.5z"/><path d="m108.599 276.518c0 20.784 16.896 37.693 37.663 37.693 20.783 0 37.69-16.909 37.69-37.693 0-20.8-16.908-37.722-37.69-37.722-20.767-.001-37.663 16.922-37.663 37.722zm60.353 0c0 12.513-10.179 22.693-22.69 22.693-12.496 0-22.663-10.18-22.663-22.693 0-12.529 10.166-22.722 22.663-22.722 12.511 0 22.69 10.193 22.69 22.722z"/><path d="m502.485 159.729c-10.575-10.954-27.915-11.024-41.35-.493-13.397-10.532-30.766-10.477-41.365.499-10.23 10.622-12.199 26.599-5.921 39.275h-390.899c-12.655 0-22.95 10.303-22.95 22.967v113.509c0 12.663 10.295 22.965 22.95 22.965h185.875c4.143 0 7.5-3.357 7.5-7.5s-3.357-7.5-7.5-7.5h-185.875c-4.383 0-7.949-3.573-7.949-7.965v-113.509c0-4.393 3.566-7.966 7.949-7.966h403.449l26.91 26.71c2.063 2.054 4.867 3.74 7.837 3.739 2.959-.001 5.751-1.692 7.806-3.737l2.921-2.899v97.663c0 4.392-3.566 7.965-7.949 7.965h-69.148l-29.39-10.488c-2.295-.82-4.848-.472-6.84.932-1.993 1.404-3.179 3.69-3.181 6.127l-.002 3.43h-111.927c-4.143 0-7.5 3.357-7.5 7.5s3.357 7.5 7.5 7.5h111.916l-.045 67.836c-.002 2.802 1.558 5.37 4.044 6.661 2.486 1.29 5.484 1.089 7.775-.524l16.147-11.372 31.173 44.291c1.145 1.628 2.89 2.733 4.851 3.073.427.074.855.11 1.282.11 1.536 0 3.048-.473 4.32-1.369l36.682-25.852c3.384-2.385 4.195-7.061 1.814-10.447l-31.182-44.328 16.161-11.404c2.288-1.614 3.486-4.369 3.107-7.144-.379-2.774-2.272-5.107-4.91-6.048l-9.764-3.484h27.115c12.655 0 22.95-10.302 22.95-22.965v-112.552l15.504-15.389c.036-.036.072-.072.107-.109 12.687-13.136 12.69-34.534.002-47.708zm-55.669 273.632-24.423 17.211-31.172-44.289c-1.145-1.627-2.89-2.732-4.85-3.073-.427-.074-.855-.11-1.283-.11-1.536 0-3.046.472-4.318 1.368l-10.452 7.361.04-61.165 57.559 20.54-10.47 7.388c-3.381 2.386-4.19 7.059-1.811 10.444zm44.928-236.396-30.612 30.384-30.622-30.392c-7.087-7.402-7.065-19.413.058-26.809 6.176-6.396 16.284-3.728 22.649 2.022.465.421.841.78 1.152 1.076 1.373 1.309 3.415 3.253 6.712 3.253.041-.001.081-.001.121 0 3.304 0 5.391-1.996 6.795-3.34.302-.288.66-.632 1.038-.98 6.375-5.758 16.483-8.428 22.652-2.036 7.132 7.403 7.152 19.42.057 26.822z"/><path d="m326.086 113.728c2.982-2.874 3.071-7.622.197-10.606-10.363-10.755-10.365-28.234.003-38.972 9.213-9.57 24.066-5.815 33.398 2.609.685.611 1.226 1.127 1.664 1.544 1.565 1.49 3.688 3.512 7.074 3.511.036-.001.072-.001.106 0 3.409 0 5.554-2.038 7.135-3.54.434-.412.965-.918 1.665-1.543 9.302-8.397 24.156-12.153 33.376-2.572 10.34 10.709 10.357 28.144.053 38.904l-42.268 41.932-17.441-17.281c-2.941-2.913-7.691-2.895-10.607.05-2.915 2.942-2.893 7.691.05 10.607l19.362 19.183c2.259 2.247 5.35 4.27 8.623 4.272 3.274.001 6.397-2.027 8.657-4.276l38.943-38.644 5.301-5.249c.042-.041.083-.083.124-.125 15.898-16.5 15.895-43.322.003-59.781-13.512-14.045-36.08-13.604-53.015.784-16.962-14.389-39.51-14.818-53.004-.793-15.901 16.468-15.904 43.29-.006 59.79 2.877 2.98 7.624 3.07 10.607.196z"/></g></g></svg>